<?xml version="1.0" standalone="yes"?>
<svg viewBox="0 0 16 16" width="512" height="512">
	<style>
		.pin {
			fill: black;
		}
		.outpin {
			fill: black;
		}
	</style>
	<rect x="1" y="1" width="13" height="13" fill="goldenrod" />
	<rect x="2" y="2" width="11" height="11" fill="white" />
	<rect class="pin" x="3" y="4" width="1" height="1" />
	<rect class="pin" x="4" y="3" width="1" height="1" />
	<rect class="pin" x="5" y="4" width="1" height="1" />
	<rect class="pin" x="6" y="3" width="1" height="1" />
	<rect class="pin" x="7" y="4" width="1" height="1" />
	<rect class="pin" x="8" y="3" width="1" height="1" />
	<rect class="pin" x="9" y="4" width="1" height="1" />
	<rect class="pin" x="10" y="3" width="1" height="1" />
	<rect class="pin" x="11" y="4" width="1" height="1" />
	<rect class="pin" x="4" y="5" width="1" height="1" />
	<rect class="pin" x="10" y="5" width="1" height="1" />
	<rect class="pin" x="3" y="6" width="1" height="1" />
	<rect class="pin" x="11" y="6" width="1" height="1" />
	<rect class="pin" x="4" y="7" width="1" height="1" />
	<rect class="pin" x="10" y="7" width="1" height="1" />
	<rect class="pin" x="3" y="8" width="1" height="1" />
	<rect class="pin" x="11" y="8" width="1" height="1" />
	<rect class="pin" x="4" y="9" width="1" height="1" />
	<rect class="pin" x="10" y="9" width="1" height="1" />
	<rect class="pin" x="3" y="10" width="1" height="1" />
	<rect class="pin" x="4" y="11" width="1" height="1" />
	<rect class="pin" x="5" y="10" width="1" height="1" />
	<rect class="pin" x="6" y="11" width="1" height="1" />
	<rect class="pin" x="7" y="10" width="1" height="1" />
	<rect class="pin" x="8" y="11" width="1" height="1" />
	<rect class="pin" x="9" y="10" width="1" height="1" />
	<rect class="pin" x="10" y="11" width="1" height="1" />
	<rect class="pin" x="11" y="10" width="1" height="1" />

	<rect class="outpin" x="4" y="1" width="1" height="1" />
	<rect class="outpin" x="6" y="1" width="1" height="1" />
	<rect class="outpin" x="8" y="1" width="1" height="1" />
	<rect class="outpin" x="10" y="1" width="1" height="1" />

	<rect class="outpin" x="1" y="4" width="1" height="1" />
	<rect class="outpin" x="1" y="6" width="1" height="1" />
	<rect class="outpin" x="1" y="8" width="1" height="1" />
	<rect class="outpin" x="1" y="10" width="1" height="1" />
	
	<rect class="outpin" x="13" y="4" width="1" height="1" />
	<rect class="outpin" x="13" y="6" width="1" height="1" />
	<rect class="outpin" x="13" y="8" width="1" height="1" />
	<rect class="outpin" x="13" y="10" width="1" height="1" />
	
	<rect class="outpin" x="4" y="13" width="1" height="1" />
	<rect class="outpin" x="6" y="13" width="1" height="1" />
	<rect class="outpin" x="8" y="13" width="1" height="1" />
	<rect class="outpin" x="10" y="13" width="1" height="1" />
</svg>
