<?xml version="1.0" standalone="yes"?>
<svg viewBox="0 0 16 16" width="512" height="512">
	<defs>
		<linearGradient
				id="grad1"
				x1="0%"
				y1="0%"
				x2="100%"
				y2="100%">
			<stop
					offset="0%"
					style="stop-color:rgb(255,255,0);stop-opacity:1" />
			<stop
					offset="100%"
					style="stop-color:rgb(255,0,0);stop-opacity:1" />
		</linearGradient>
		<linearGradient
				id="grad2"
				x1="0%"
				y1="0%"
				x2="100%"
				y2="100%">
			<stop
					offset="0%"
					style="stop-color:rgb(255,0,0);stop-opacity:1" />
			<stop
					offset="100%"
					style="stop-color:rgb(255,255,0);stop-opacity:1" />
		</linearGradient>
		<rect
				x="0"
				y="0"
				height="16"
				width="16"
				fill="white" />
		<clipPath id="circleClip">
			<circle
					cx="8"
					cy="8"
					r="7"
					mask="url(#maskPath)" />
		</clipPath>
	</defs>
	<rect
			x="0"
			y="0"
			width="16"
			height="16"
			rx="2"
			ry="2"/>
	<g clip-path="url(#circleClip)">
		<path
				d="M-1,-1
					 c0,5 1,6 6,6
					 c5,0 6,1 6,6
					 c0,5 1,6 6,6"
				stroke-width="2"
				stroke="white"
				fill="none" />
		<path
				d="M-1,-1
					 c5,0 6,1 6,6
					 c0,5 1,6 6,6
					 c5,0 6,1 6,6"
				stroke-width="2"
				stroke="white"
				fill="none" />
	</g>
</svg>