<?xml version="1.0" encoding="utf-8"?>
<svg viewBox="0 0 512 512" xmlns="http://www.w3.org/2000/svg">
  <circle cx="256" cy="256" r="256" fill="black"/>
  <polygon style="fill: white;" points="128 96 192 96 192 160 256 160 256 224 192 224 192 288 128 288 128 224 64 224 64 160 128 160 128 96"/>
  <polygon style="fill: white;" points="320 96 384 96 384 160 448 160 448 224 384 224 384 288 320 288 320 224 256 224 256 160 320 160 320 96"/>
  <path d="M 128 320 C 128 405.333 170.667 448 256 448 C 341.333 448 384 405.333 384 320 M 320 320 C 320 362.667 298.667 384 256 384 C 213.333 384 192 362.667 192 320 L 320 320 Z" style="fill: white;"/>
  <rect x="252" y="160" width="8" height="64" style="fill: black;"/>
</svg>