<?xml version="1.0" encoding="UTF-8" standalone="no"?>
<svg
   viewBox="0 0 250000 15625"
   version="1.1"
   id="svg3"
   width="250000"
   height="15625"
   xmlns:xlink="http://www.w3.org/1999/xlink"
   xmlns="http://www.w3.org/2000/svg"
   xmlns:svg="http://www.w3.org/2000/svg"
   xmlns:bx="https://boxy-svg.com">
  <defs
     id="defs2">
    <style
       bx:fonts="JetBrains Mono"
       id="style1">@import url('https://fonts.googleapis.com/css2?family=JetBrains+Mono:wght@400;800&amp;display=swap');</style>
    <style
       id="style2">
      .title {
        font-family: &quot;JetBrains Mono&quot;;
        font-size: 90px; font-weight: 800;
        white-space: nowrap;
      }
      .slogan {
        font-family: &quot;JetBrains Mono&quot;;
        font-size: 20px;
        white-space: nowrap;
      }
    </style>
  </defs>
  <symbol
     id="tinhvi-logo"
     viewBox="0 0 512 512">
    <polygon
       style="fill:#000000"
       points="477.703,128 477.703,384 256,512 34.297,384 34.297,128 256,0 "
       id="polygon1" />
    <path
       id="path19"
       style="fill:#ffffff;fill-opacity:1;stroke:#000000;stroke-opacity:1"
       d="m 224,128 -64,13.60352 v 51.69531 l -32,6.80273 v 65.42188 l 32,-6.80274 V 288 a 96,96 0 0 0 96,96 96,96 0 0 0 96,-96 V 242.39648 L 288,256 v 32 a 32,32 0 0 1 -32,32 32,32 0 0 1 -32,-32 v -42.88281 l 32,-6.80274 v -65.41992 l -32,6.80078 z" />
    <circle
       style="fill:#ffff00;fill-opacity:1;stroke:#000000;stroke-opacity:1"
       id="path20"
       cx="320"
       cy="192"
       r="32" />
  </symbol>
  <rect
     x="0"
     y="0"
     width="500"
     height="125"
     style="fill:#ffffff"
     rx="64"
     id="rect2" />
  <use
     width="95"
     height="95"
     transform="translate(15,15)"
     xlink:href="#tinhvi-logo"
     id="use2" />
  <text
     class="title"
     x="125"
     y="95"
     id="text2">tinhvi</text>
  <text
     class="slogan"
     x="125"
     y="117"
     id="text3">Bringing Your Idea to Life!</text>
</svg>
