<?xml version="1.0" encoding="UTF-8" standalone="no"?>
<!-- Created with Inkscape (http://www.inkscape.org/) -->

<svg
   width="512"
   height="512"
   viewBox="0 0 512 512"
   version="1.1"
   id="svg1"
   xmlns:xlink="http://www.w3.org/1999/xlink"
   xmlns="http://www.w3.org/2000/svg"
   xmlns:svg="http://www.w3.org/2000/svg">
  <defs
     id="defs1" />
  <g
     id="layer1">
    <polygon
       style="fill:#000000"
       points="477.703,128 477.703,384 256,512 34.297,384 34.297,128 256,0 "
       id="polygon1" />
    <path
       id="path19"
       style="fill:#ffffff;fill-opacity:1;stroke:#000000;stroke-opacity:1"
       d="m 224,128 -64,13.60352 v 51.69531 l -32,6.80273 v 65.42188 l 32,-6.80274 V 288 a 96,96 0 0 0 96,96 96,96 0 0 0 96,-96 V 242.39648 L 288,256 v 32 a 32,32 0 0 1 -32,32 32,32 0 0 1 -32,-32 v -42.88281 l 32,-6.80274 v -65.41992 l -32,6.80078 z" />
    <circle
       style="fill:#ffff00;fill-opacity:1;stroke:#000000;stroke-opacity:1"
       id="path20"
       cx="320"
       cy="192"
       r="32" />
    <text
       xml:space="preserve"
       style="font-style:normal;font-variant:normal;font-weight:normal;font-stretch:normal;font-size:37.3333px;font-family:'JetBrains Mono';-inkscape-font-specification:'JetBrains Mono';text-align:start;writing-mode:lr-tb;direction:ltr;text-anchor:start;fill:#ffffff;fill-opacity:1;stroke:#ffffff"
       id="text4"
       x="580.77264"
       y="0"><textPath
         xlink:href="#path4"
         id="textPath4"><tspan
           id="tspan4"
           style="font-style:normal;font-variant:normal;font-weight:normal;font-stretch:normal;font-size:37.3333px;font-family:'JetBrains Mono';-inkscape-font-specification:'JetBrains Mono';text-align:start;writing-mode:lr-tb;text-anchor:start;fill:#ffffff;fill-opacity:1">Bringing Your Idea to Life!</tspan></textPath></text>
    <path
       id="path4"
       style="fill:none;stroke:none;stroke-width:0.96"
       d="m 64,256 c -10e-7,31.50347 7.718863,61.90788 21.821215,88.90028 16.603825,31.78031 42.056575,58.83083 74.178775,77.3766 59.40501,34.29749 132.595,34.29749 192.00001,0 C 411.40501,387.97938 448,324.595 448,256" />
  </g>
</svg>
