<?xml version="1.0" encoding="utf-8"?>
<svg viewBox="0 0 500 500" xmlns="http://www.w3.org/2000/svg">
  <g data-name="Layer 2" transform="matrix(25.038713455200195, 0, 0, 25.038713455200195, -50.7477912902832, -48.82629013061525)" style="">
    <path d="M12 21.85a2 2 0 0 1-1-.25l-.3-.17A15.17 15.17 0 0 1 3 8.23v-.14a2 2 0 0 1 1-1.75l7-3.94a2 2 0 0 1 2 0l7 3.94a2 2 0 0 1 1 1.75v.14a15.17 15.17 0 0 1-7.72 13.2l-.3.17a2 2 0 0 1-.98.25z" data-name="shield"/>
  </g>
  <polygon style="fill: rgb(0, 216, 216); stroke: rgb(0, 0, 0);" points="76.366 130.972 411.366 125.972 413.366 182.972 286.366 184.972 291.366 397.972 253.366 430.972 218.366 408.972 210.366 189.972 83.366 189.972"/>
  <polygon style="fill: rgb(0, 216, 216); stroke: rgb(0, 0, 0);" points="116.366 227.972 123.366 339.972 177.366 383.972 169.366 225.972"/>
  <polygon style="fill: rgb(0, 216, 216); stroke: rgb(0, 0, 0);" points="391.366 226.972 386.366 325.972 335.366 366.972 336.366 227.972"/>
</svg>