<?xml version="1.0" encoding="utf-8"?>
<svg viewBox="0 0 512 512" xmlns="http://www.w3.org/2000/svg">
  <circle cx="256" cy="256" r="256" fill="black"/>
  <polygon style="fill: white;" points="128,128 192,128 192,192 256,192 256,256 192,256 192,320 128,320 128,256 64,256 64,192 128,192 128,128"/>
  <polygon style="fill: white;" points="192,384 128,384 128,320 192,320 192,448 320,448 320,320 384,320 384,384 192,384"/>
  <polygon style="fill: white;" points="320,128 384,128 384,192 320,192 320,128"/>
  <polygon style="fill: white;" points="320,256 384,256 384,320 320,320 320,256"/>
</svg>