<?xml version="1.0" encoding="utf-8"?>
<svg viewBox="0 0 512 512" xmlns="http://www.w3.org/2000/svg">
  <circle cx="256" cy="256" r="256" fill="black"/>
  <path d="M 128 128 L 192 128 L 192 192 L 256 192 L 256 256 L 192 256 L 192 320 L 128 320 L 128 256 L 64 256 L 64 192 L 128 192 L 128 128 Z M 128 320 C 128 405.333 170.667 448 256 448 C 341.333 448 384 405.333 384 320 M 320 320 C 320 362.667 298.667 384 256 384 C 213.333 384 192 362.667 192 320 M 320 128 L 384 128 L 384 192 L 320 192 L 320 128 Z M 320 256 L 384 256 L 384 320 L 320 320 L 320 256 Z" style="fill: white;"/>
</svg>